# xmcd
#
# Track frame offsets:
#	150
#	19007
#	32330
#	55785
#	75972
#	91315
#	105437
#	119177
#	138735
#	156535
#	168007
#	181550
#	193612
#	209072
#	222290
#	241072
#
# Disc length: 3390 seconds
#
# Revision: 3
# Processed by: cddbd v1.5.2PL0 Copyright (c) Steve Scherf et al.
# Submitted via: audiograbber 1.83.01
#
DISCID=cf0d3c10
DTITLE=MH1015 Monster Hits - Male Country Hits (MH)
DYEAR=2008
DGENRE=Karaoke
TTITLE0=Tracy Byrd - The Keeper Of The Stars (MH)
TTITLE1=John Michael Montgomery - Be My Baby Tonight (MH)
TTITLE2=Bob Carlisle  - Butterfly Kisses (MH)
TTITLE3=Garth Brooks - Shameless (MH)
TTITLE4=Confederate Railroad - Queen Of Memphis (MH)
TTITLE5=Tracy Byrd - Watermelon Crawl (MH)
TTITLE6=Brooks and Dunn - Little Miss Honky Tonk (MH)
TTITLE7=Brooks and Dunn - You're Gonna Miss Me When I'm Gone (MH)
TTITLE8=Alan Jackson - I Don't Even Know Your Name (MH)
TTITLE9=Toby Keith - You Ain't Much Fun (MH)
TTITLE10=Tim McGraw  - Indian Outlaw (MH)
TTITLE11=Alan Jackson  - Little Bitty (MH)
TTITLE12=Brooks and Dunn - My Maria (MH)
TTITLE13=Clint Black  - Better Man (MH)
TTITLE14=Tim McGraw  - Don't Take The Girl (MH)
TTITLE15=Joe Diffie - Third Rock From The Sun (MH)
EXTD=
EXTT0=
EXTT1=
EXTT2=
EXTT3=
EXTT4=
EXTT5=
EXTT6=
EXTT7=
EXTT8=
EXTT9=
EXTT10=
EXTT11=
EXTT12=
EXTT13=
EXTT14=
EXTT15=
PLAYORDER=
